<svg width="100" height="100" viewBox="-150 -150 300 300" fill="transparent"  stroke="black" stroke-width="10">
  <circle r="44" cy="-40" />
  <path d="M -80 80 Q -80 25 0 25 Q 80 25 80 80 Z" />
  
  <path d="M 0 -103 L -40 -133 -15 -133 -15 -148 15 -148 15 -133 40 -133 Z" />
  <path d="M 0 103 L -40 133 -15 133 -15 148 15 148 15 133 40 133 Z" />
  <path d="M -100 0 L -130 -40 -130 -15 -145 -15 -145 15 -130 15 -130 40 Z" />
  <path d="M 100 0 L 130 -40 130 -15 145 -15 145 15 130 15 130 40 Z" />
</svg>